<svg xmlns="http://www.w3.org/2000/svg" viewBox="-3150 -9713 28.974 41.913">
  <defs>
    <style>
      .cls-1 {
        fill: #7a2b53;
      }
    </style>
  </defs>
  <g id="hour-glass-2" transform="translate(-19641.35 -10401.242)">
    <path id="Path_6135" data-name="Path 6135" class="cls-1" d="M-59.031-86.367c-1.044-5.456-7.855-7.3-9.092-13.3H-49.14a18.058,18.058,0,0,1-1.852,3.809c-1.5,1.807-3.377,3.3-4.929,5.077a49.615,49.615,0,0,0-3.111,4.416" transform="translate(16565.068 795.567)"/>
    <path id="Path_6139" data-name="Path 6139" class="cls-1" d="M-46.848,0l7.592,5.723H-54.063L-46.848,0" transform="translate(16553.059 720.144)"/>
    <path id="Path_6145" data-name="Path 6145" class="cls-1" d="M-178.487,0h-26a1.487,1.487,0,0,0-1.487,1.487,1.487,1.487,0,0,0,1.485,1.487h26.007A1.487,1.487,0,0,0-177,1.487,1.487,1.487,0,0,0-178.487,0" transform="translate(16697.324 688.242)"/>
    <path id="Path_6146" data-name="Path 6146" class="cls-1" d="M-178.487,0h-26a1.487,1.487,0,0,0-1.487,1.487,1.487,1.487,0,0,0,1.485,1.487h26.007A1.487,1.487,0,0,0-177,1.487,1.487,1.487,0,0,0-178.487,0" transform="translate(16697.324 727.182)"/>
    <path id="Path_6147" data-name="Path 6147" class="cls-1" d="M-17.331-224.944H-20c0-5.8.486-8.238,3.365-11.283.593-.627,1.275-1.319,2-2.05a53.827,53.827,0,0,0,3.707-3.989,53.792,53.792,0,0,0-3.707-3.989c-.722-.732-1.4-1.423-2-2.05C-19.514-251.351-20-253.794-20-259.589h2.669c0,5.788.594,7.29,2.635,9.45.573.606,1.246,1.288,1.958,2.009,3.6,3.651,4.584,4.787,4.614,5.823v.081c-.03,1.036-1.01,2.172-4.614,5.823-.712.721-1.384,1.4-1.958,2.009-2.042,2.16-2.635,3.662-2.635,9.45" transform="translate(16513.354 951.465)"/>
    <path id="Path_6148" data-name="Path 6148" class="cls-1" d="M-77.115-224.944h-2.669c0-5.788-.594-7.29-2.635-9.45-.573-.606-1.246-1.288-1.958-2.009-3.6-3.651-4.584-4.787-4.614-5.823v-.081c.03-1.036,1.01-2.172,4.614-5.823.712-.721,1.385-1.4,1.958-2.009,2.042-2.16,2.635-3.662,2.635-9.45h2.669c0,5.8-.486,8.238-3.365,11.283-.593.627-1.275,1.319-2,2.05a53.813,53.813,0,0,0-3.706,3.989,53.84,53.84,0,0,0,3.706,3.988c.722.732,1.4,1.423,2,2.051,2.878,3.045,3.365,5.488,3.365,11.283" transform="translate(16596.242 951.465)"/>
  </g>
</svg>
