<svg xmlns="http://www.w3.org/2000/svg" viewBox="-3189 -9712.999 28.973 41.913">
  <defs>
    <style>
      .cls-1 {
        fill: #7a2b53;
      }
    </style>
  </defs>
  <g id="hour-glass-5" transform="translate(13437.957 -8982.844) rotate(180)">
    <path id="Path_6133" data-name="Path 6133" class="cls-1" d="M-.554-101.3A10.117,10.117,0,0,1,2.8-110.572,83.143,83.143,0,0,0,8.632-116.9a61.668,61.668,0,0,0,5.585,6.257c2.868,2.516,3.631,5.614,3.684,9.344Z" transform="translate(16604.275 827.639)"/>
    <path id="Path_6157" data-name="Path 6157" class="cls-1" d="M-178.486,0h-26a1.487,1.487,0,0,0-1.487,1.487,1.487,1.487,0,0,0,1.485,1.487h26.007A1.487,1.487,0,0,0-177,1.487,1.487,1.487,0,0,0-178.486,0" transform="translate(16803.957 688.242)"/>
    <path id="Path_6158" data-name="Path 6158" class="cls-1" d="M-178.486,0h-26a1.487,1.487,0,0,0-1.487,1.487,1.487,1.487,0,0,0,1.485,1.487h26.007A1.487,1.487,0,0,0-177,1.487,1.487,1.487,0,0,0-178.486,0" transform="translate(16803.957 727.182)"/>
    <path id="Path_6159" data-name="Path 6159" class="cls-1" d="M-17.331-224.944H-20c0-5.8.486-8.238,3.365-11.283.593-.627,1.275-1.319,2-2.05a53.827,53.827,0,0,0,3.707-3.989,53.792,53.792,0,0,0-3.707-3.989c-.722-.732-1.4-1.423-2-2.05C-19.514-251.351-20-253.794-20-259.589h2.669c0,5.788.594,7.29,2.635,9.45.573.606,1.246,1.288,1.958,2.009,3.6,3.651,4.584,4.787,4.614,5.823v.081c-.03,1.036-1.01,2.172-4.614,5.823-.712.721-1.384,1.4-1.958,2.009-2.042,2.16-2.635,3.662-2.635,9.45" transform="translate(16619.986 951.465)"/>
    <path id="Path_6160" data-name="Path 6160" class="cls-1" d="M-77.115-224.944h-2.669c0-5.788-.594-7.29-2.635-9.45-.573-.606-1.246-1.288-1.958-2.009-3.6-3.651-4.584-4.787-4.614-5.823v-.081c.03-1.036,1.01-2.172,4.614-5.823.712-.721,1.385-1.4,1.958-2.009,2.042-2.16,2.635-3.662,2.635-9.45h2.669c0,5.8-.486,8.238-3.365,11.283-.593.627-1.275,1.319-2,2.05a53.813,53.813,0,0,0-3.706,3.989,53.84,53.84,0,0,0,3.706,3.988c.722.732,1.4,1.423,2,2.051,2.878,3.045,3.365,5.488,3.365,11.283" transform="translate(16702.875 951.465)"/>
  </g>
</svg>
