<svg xmlns="http://www.w3.org/2000/svg" viewBox="-3110 -9714 28.974 41.913">
  <defs>
    <style>
      .cls-1 {
        fill: #7a2b53;
      }
    </style>
  </defs>
  <g id="hour-glass-3" transform="translate(-19636.494 -10402.242)">
    <path id="Path_6137" data-name="Path 6137" class="cls-1" d="M-120.862-3.141l-9.311,10.2-9.3-10.68a33.781,33.781,0,0,0,18.615.484" transform="translate(16671.57 701.267)"/>
    <path id="Path_6138" data-name="Path 6138" class="cls-1" d="M-103.906-54.954h-16l7.9-8.464,8.1,8.464" transform="translate(16653.43 780.895)"/>
    <path id="Path_6149" data-name="Path 6149" class="cls-1" d="M-178.487,0h-26a1.487,1.487,0,0,0-1.487,1.487,1.487,1.487,0,0,0,1.485,1.487h26.007A1.487,1.487,0,0,0-177,1.487,1.487,1.487,0,0,0-178.487,0" transform="translate(16732.469 688.242)"/>
    <path id="Path_6150" data-name="Path 6150" class="cls-1" d="M-178.487,0h-26a1.487,1.487,0,0,0-1.487,1.487,1.487,1.487,0,0,0,1.485,1.487h26.007A1.487,1.487,0,0,0-177,1.487,1.487,1.487,0,0,0-178.487,0" transform="translate(16732.469 727.182)"/>
    <path id="Path_6151" data-name="Path 6151" class="cls-1" d="M-17.331-224.944H-20c0-5.8.486-8.238,3.365-11.283.593-.627,1.275-1.319,2-2.05a53.827,53.827,0,0,0,3.707-3.989,53.792,53.792,0,0,0-3.707-3.989c-.722-.732-1.4-1.423-2-2.05C-19.514-251.351-20-253.794-20-259.589h2.669c0,5.788.594,7.29,2.635,9.45.573.606,1.246,1.288,1.958,2.009,3.6,3.651,4.584,4.787,4.614,5.823v.081c-.03,1.036-1.01,2.172-4.614,5.823-.712.721-1.384,1.4-1.958,2.009-2.042,2.16-2.635,3.662-2.635,9.45" transform="translate(16548.498 951.465)"/>
    <path id="Path_6152" data-name="Path 6152" class="cls-1" d="M-77.115-224.944h-2.669c0-5.788-.594-7.29-2.635-9.45-.573-.606-1.246-1.288-1.958-2.009-3.6-3.651-4.584-4.787-4.614-5.823v-.081c.03-1.036,1.01-2.172,4.614-5.823.712-.721,1.385-1.4,1.958-2.009,2.042-2.16,2.635-3.662,2.635-9.45h2.669c0,5.8-.486,8.238-3.365,11.283-.593.627-1.275,1.319-2,2.05a53.813,53.813,0,0,0-3.706,3.989,53.84,53.84,0,0,0,3.706,3.988c.722.732,1.4,1.423,2,2.051,2.878,3.045,3.365,5.488,3.365,11.283" transform="translate(16631.387 951.465)"/>
  </g>
</svg>
