<svg xmlns="http://www.w3.org/2000/svg" viewBox="-3070 -9713 28.974 41.913">
  <defs>
    <style>
      .cls-1 {
        fill: #7a2b53;
      }
    </style>
  </defs>
  <g id="hour-glass-4" transform="translate(-19632.572 -10400.242)">
    <path id="Path_6164" data-name="Path 6164" class="cls-1" d="M-61.133,0c.64,3.5,3.567,5.129,5.661,7.426a21.841,21.841,0,0,1,4.121,5.842h-19.2c1.23-5.865,8-7.462,9.415-13.268" transform="translate(16638.355 712.174)"/>
    <path id="Path_6161" data-name="Path 6161" class="cls-1" d="M-42.022-66.636a44.019,44.019,0,0,0-2.693-4.86c-1.122-1.559-2.574-2.88-3.779-4.562,4.447,1.574,8.734,1.792,13.232-.841-2.224,3.963-6.66,5.879-6.76,10.263" transform="translate(16619.352 774.245)"/>
    <path id="Path_6162" data-name="Path 6162" class="cls-1" d="M-178.487,0h-26a1.487,1.487,0,0,0-1.487,1.487,1.487,1.487,0,0,0,1.485,1.487h26.007A1.487,1.487,0,0,0-177,1.487,1.487,1.487,0,0,0-178.487,0" transform="translate(16768.547 687.242)"/>
    <path id="Path_6166" data-name="Path 6166" class="cls-1" d="M-178.487,0h-26a1.487,1.487,0,0,0-1.487,1.487,1.487,1.487,0,0,0,1.485,1.487h26.007A1.487,1.487,0,0,0-177,1.487,1.487,1.487,0,0,0-178.487,0" transform="translate(16768.547 726.182)"/>
    <path id="Path_6165" data-name="Path 6165" class="cls-1" d="M-17.331-224.944H-20c0-5.8.486-8.238,3.365-11.283.593-.627,1.275-1.319,2-2.05a53.827,53.827,0,0,0,3.707-3.989,53.792,53.792,0,0,0-3.707-3.989c-.722-.732-1.4-1.423-2-2.05C-19.514-251.351-20-253.794-20-259.589h2.669c0,5.788.594,7.29,2.635,9.45.573.606,1.246,1.288,1.958,2.009,3.6,3.651,4.584,4.787,4.614,5.823v.081c-.03,1.036-1.01,2.172-4.614,5.823-.712.721-1.384,1.4-1.958,2.009-2.042,2.16-2.635,3.662-2.635,9.45" transform="translate(16584.576 950.465)"/>
    <path id="Path_6163" data-name="Path 6163" class="cls-1" d="M-77.115-224.944h-2.669c0-5.788-.594-7.29-2.635-9.45-.573-.606-1.246-1.288-1.958-2.009-3.6-3.651-4.584-4.787-4.614-5.823v-.081c.03-1.036,1.01-2.172,4.614-5.823.712-.721,1.385-1.4,1.958-2.009,2.042-2.16,2.635-3.662,2.635-9.45h2.669c0,5.8-.486,8.238-3.365,11.283-.593.627-1.275,1.319-2,2.05a53.813,53.813,0,0,0-3.706,3.989,53.84,53.84,0,0,0,3.706,3.988c.722.732,1.4,1.423,2,2.051,2.878,3.045,3.365,5.488,3.365,11.283" transform="translate(16667.463 950.465)"/>
  </g>
</svg>
